<svg xmlns="http://www.w3.org/2000/svg" width="1147" height="261" viewBox="0 0 1147 261" role="img" aria-label="Flow diagram placeholder">
  <defs>
    <linearGradient id="g" x1="0%" y1="0%" x2="100%" y2="0%">
      <stop offset="0%" stop-color="#4B6FFF"/>
      <stop offset="100%" stop-color="#3758FF"/>
    </linearGradient>
  </defs>
  <rect width="1147" height="261" fill="#ffffff"/>
  <g fill="none" stroke="#e5e7eb">
    <rect x="16" y="16" width="1115" height="229" rx="12"/>
  </g>
  <g font-family="'Noto Sans JP', Arial, sans-serif" font-size="18" fill="#121212" text-anchor="middle">
    <text x="573.5" y="56" font-weight="700">Flow Diagram Placeholder</text>
    <text x="573.5" y="82" fill="#6b7280">assets/diagram-flow.png を配置すると差し替わります</text>
  </g>
  <g transform="translate(40,120)">
    <polygon points="0,0 140,0 160,20 140,40 0,40" fill="url(#g)"/>
    <text x="70" y="26" fill="#fff" font-size="16" text-anchor="middle">STEP 1</text>
  </g>
  <g transform="translate(220,120)">
    <polygon points="0,0 140,0 160,20 140,40 0,40" fill="url(#g)"/>
    <text x="70" y="26" fill="#fff" font-size="16" text-anchor="middle">STEP 2</text>
  </g>
  <g transform="translate(400,120)">
    <polygon points="0,0 140,0 160,20 140,40 0,40" fill="url(#g)"/>
    <text x="70" y="26" fill="#fff" font-size="16" text-anchor="middle">STEP 3</text>
  </g>
  <g transform="translate(580,120)">
    <polygon points="0,0 140,0 160,20 140,40 0,40" fill="url(#g)"/>
    <text x="70" y="26" fill="#fff" font-size="16" text-anchor="middle">STEP 4</text>
  </g>
  <g transform="translate(760,120)">
    <polygon points="0,0 140,0 160,20 140,40 0,40" fill="url(#g)"/>
    <text x="70" y="26" fill="#fff" font-size="16" text-anchor="middle">STEP 5</text>
  </g>
  <g transform="translate(940,120)">
    <polygon points="0,0 140,0 160,20 140,40 0,40" fill="#fb923c"/>
    <text x="70" y="26" fill="#fff" font-size="16" text-anchor="middle">GOAL</text>
  </g>
</svg>
